# xmcd
#
# Track frame offsets: 
#        150
#        56422
#        116692
#        140622
#        157622
#        202332
#        265780
#
# Disc length: 3958 seconds
#
# Revision: 2
# Processed by: cddbd v1.5.2PL0 Copyright (c) Steve Scherf et al.
# Submitted via: ExactAudioCopy v1.0b3
#
DISCID=5f0f7407
DTITLE=Ludwig van Beethoven - 交響曲第6番ヘ長調，Op..68「田園」
DYEAR=1975
DGENRE=Classical
TTITLE0=第1楽章:田舎に来た時の喜ばしい感情の目覚め
TTITLE1=第2楽章:小川のほとりの情景
TTITLE2=第3楽章:田舎の人々の楽しき集い
TTITLE3=第4楽章:雷雨・嵐
TTITLE4=第5楽章:牧人の歌・嵐の後の喜ばしい気分
TTITLE5=序曲「レオノーレ」第3番，Op.72b
TTITLE6=歌劇「フィデリオ」，Op.72-序曲
EXTD=
EXTT0=
EXTT1=
EXTT2=
EXTT3=
EXTT4=
EXTT5=
EXTT6=
PLAYORDER=
